<?xml version="1.0" encoding="utf-8"?>
<!-- Generator: Adobe Illustrator 15.1.0, SVG Export Plug-In . SVG Version: 6.00 Build 0)  -->
<!DOCTYPE svg PUBLIC "-//W3C//DTD SVG 1.1//EN" "http://www.w3.org/Graphics/SVG/1.1/DTD/svg11.dtd">
<svg version="1.1" xmlns="http://www.w3.org/2000/svg" xmlns:xlink="http://www.w3.org/1999/xlink" x="0px" y="0px" width="206.5px"
	 height="206.5px" viewBox="0 0 206.5 206.5" enable-background="new 0 0 206.5 206.5" xml:space="preserve">
<g id="Layer_1">
	<g>
		<path fill="#FFFFFF" d="M93.439,174.476h-2.595c-0.16,0-0.295-0.136-0.295-0.308c0-0.16,0.135-0.295,0.295-0.295h5.78
			c0.16,0,0.295,0.135,0.295,0.295c0,0.172-0.135,0.308-0.295,0.308h-2.595v7.712c0,0.158-0.135,0.295-0.295,0.295
			c-0.16,0-0.295-0.137-0.295-0.295V174.476z"/>
		<path fill="#FFFFFF" d="M105.443,178.473h-4.428v3.715c0,0.158-0.135,0.295-0.308,0.295c-0.16,0-0.295-0.137-0.295-0.295v-8.02
			c0-0.16,0.135-0.295,0.295-0.295c0.172,0,0.308,0.135,0.308,0.295v3.715h4.428v-3.715c0-0.16,0.136-0.295,0.295-0.295
			c0.173,0,0.308,0.135,0.308,0.295v8.02c0,0.158-0.135,0.295-0.308,0.295c-0.159,0-0.295-0.137-0.295-0.295V178.473z"/>
		<path fill="#FFFFFF" d="M110.362,174.17c0-0.16,0.135-0.297,0.295-0.297h0.024h4.403c0.172,0,0.295,0.137,0.295,0.297
			c0,0.172-0.123,0.307-0.295,0.307h-4.121v3.406h3.604c0.16,0,0.295,0.136,0.295,0.309c0,0.159-0.135,0.295-0.295,0.295h-3.604
			v3.395h4.121c0.172,0,0.295,0.136,0.295,0.309c0,0.159-0.123,0.295-0.295,0.295h-4.392h-0.036h-0.025
			c-0.146-0.014-0.271-0.136-0.271-0.295L110.362,174.17L110.362,174.17z"/>
		<path fill="#FFFFFF" d="M9.792,195.578H2.75v5.907c0,0.255-0.215,0.47-0.489,0.47c-0.254,0-0.47-0.215-0.47-0.47v-12.754
			c0-0.255,0.215-0.47,0.47-0.47c0.274,0,0.489,0.215,0.489,0.47v5.907h7.042v-5.907c0-0.255,0.215-0.47,0.47-0.47
			c0.273,0,0.489,0.215,0.489,0.47v12.754c0,0.255-0.215,0.47-0.489,0.47c-0.254,0-0.47-0.215-0.47-0.47V195.578z"/>
		<path fill="#FFFFFF" d="M16.173,188.731c0-0.255,0.215-0.47,0.469-0.47c0.274,0,0.489,0.215,0.489,0.47v7.688
			c0,2.522,2.054,4.558,4.558,4.576c2.543-0.02,4.597-2.054,4.597-4.576v-7.688c0-0.255,0.215-0.47,0.469-0.47
			c0.274,0,0.489,0.215,0.489,0.47v7.688c0,3.051-2.484,5.535-5.556,5.535c-3.032,0-5.516-2.484-5.516-5.535L16.173,188.731
			L16.173,188.731z"/>
		<path fill="#FFFFFF" d="M43.133,190.217l-4.382,6.084c-0.098,0.156-0.254,0.216-0.391,0.216h-0.039
			c-0.176,0-0.313-0.06-0.411-0.216l-4.382-6.063v11.248c0,0.255-0.215,0.47-0.47,0.47c-0.274,0-0.489-0.215-0.489-0.47V188.81
			c0-0.156,0.078-0.293,0.195-0.372c0-0.02,0.02-0.02,0.039-0.039c0.215-0.137,0.509-0.098,0.665,0.118l4.871,6.748l4.851-6.748
			c0.137-0.216,0.45-0.255,0.666-0.118c0.059,0.059,0.098,0.098,0.137,0.157c0.039,0.077,0.078,0.176,0.078,0.254v12.676
			c0,0.255-0.215,0.47-0.469,0.47c-0.274,0-0.47-0.215-0.47-0.47L43.133,190.217L43.133,190.217z"/>
		<path fill="#FFFFFF" d="M57.064,198.414h-6.24l-1.213,3.229c-0.079,0.194-0.254,0.312-0.45,0.312c-0.039,0-0.117-0.02-0.176-0.02
			c-0.235-0.098-0.372-0.393-0.274-0.626l4.753-12.695c0.078-0.177,0.274-0.294,0.469-0.294c0.215,0,0.411,0.117,0.47,0.294
			l4.753,12.695c0.098,0.233-0.02,0.528-0.254,0.626c-0.078,0-0.117,0.02-0.176,0.02c-0.176,0-0.372-0.117-0.45-0.312
			L57.064,198.414z M51.178,197.457h5.536l-2.758-7.355L51.178,197.457z"/>
		<path fill="#FFFFFF" d="M64.679,190.276v11.209c0,0.255-0.215,0.47-0.47,0.47s-0.469-0.215-0.469-0.47v-12.56
			c-0.059-0.194,0-0.391,0.176-0.527c0.215-0.137,0.528-0.098,0.665,0.118l8.294,11.502v-11.15c0-0.254,0.215-0.47,0.469-0.47
			c0.274,0,0.489,0.216,0.489,0.47v12.617c0,0.255-0.215,0.47-0.489,0.47c-0.156,0-0.273-0.059-0.372-0.176
			c-0.02-0.02-0.059-0.039-0.078-0.078L64.679,190.276z"/>
		<path fill="#FFFFFF" d="M89.134,201.682c-0.02,0-0.02-0.021-0.02-0.039l-0.02-0.021l-5.301-12.617
			c-0.098-0.233,0.02-0.527,0.254-0.625c0.234-0.117,0.528,0,0.626,0.234l4.89,11.658l4.91-11.658
			c0.078-0.234,0.372-0.354,0.606-0.234c0.235,0.098,0.352,0.392,0.254,0.625l-5.301,12.521c-0.02,0.177-0.118,0.333-0.274,0.392
			h-0.02c-0.059,0.021-0.118,0.039-0.176,0.039s-0.137,0-0.176-0.02c-0.02,0-0.02-0.02-0.02-0.02
			C89.251,201.877,89.173,201.799,89.134,201.682z"/>
		<path fill="#FFFFFF" d="M105.315,188.066c3.658,0,6.534,3.109,6.555,6.943c-0.021,3.834-2.896,6.945-6.555,6.945
			c-3.697,0-6.592-3.111-6.611-6.945C98.724,191.176,101.619,188.066,105.315,188.066z M105.315,200.996
			c3.014,0,5.557-2.641,5.575-5.984c-0.021-3.385-2.562-5.967-5.575-5.967c-3.11,0-5.653,2.582-5.653,5.967
			C99.663,198.355,102.206,200.996,105.315,200.996z"/>
		<path fill="#FFFFFF" d="M116.567,188.731c0-0.255,0.217-0.47,0.471-0.47c0.273,0,0.488,0.215,0.488,0.47v12.754
			c0,0.255-0.215,0.47-0.488,0.47c-0.254,0-0.471-0.215-0.471-0.47V188.731z"/>
		<path fill="#FFFFFF" d="M129.695,188.066c1.683,0,3.228,0.587,4.421,1.506c0.215,0.176,0.254,0.51,0.078,0.686
			c-0.156,0.234-0.47,0.254-0.665,0.098c-1.057-0.821-2.387-1.33-3.834-1.33c-3.424,0-6.161,2.682-6.161,6.025
			c0,3.267,2.737,5.945,6.161,5.945c1.447,0,2.777-0.469,3.796-1.33c0.233-0.156,0.547-0.117,0.684,0.118
			c0.195,0.177,0.156,0.527-0.059,0.685c-1.193,0.92-2.738,1.486-4.421,1.486c-3.933,0-7.12-3.091-7.12-6.904
			C122.575,191.157,125.763,188.086,129.695,188.066z"/>
		<path fill="#FFFFFF" d="M139.245,188.731c0-0.255,0.215-0.47,0.469-0.47h0.039h7.004c0.273,0,0.47,0.215,0.47,0.47
			c0,0.272-0.194,0.489-0.47,0.489h-6.553v5.418h5.73c0.254,0,0.47,0.216,0.47,0.488c0,0.256-0.216,0.471-0.47,0.471h-5.73v5.397
			h6.553c0.273,0,0.47,0.216,0.47,0.489c0,0.255-0.194,0.471-0.47,0.471h-6.983h-0.06h-0.039c-0.233-0.021-0.43-0.216-0.43-0.471
			V188.731z"/>
		<path fill="#FFFFFF" d="M152.314,188.731c0-0.255,0.216-0.47,0.47-0.47h0.06h2.993c1.877,0,3.402,1.525,3.402,3.424
			c0,1.074-0.527,2.033-1.311,2.66c1.546,0.527,2.68,1.976,2.68,3.697c0,2.17-1.76,3.912-3.912,3.912h-3.854h-0.059h-0.021
			c-0.255,0-0.45-0.216-0.45-0.471L152.314,188.731L152.314,188.731z M155.835,194.11c1.351,0,2.445-1.095,2.445-2.425
			c0-1.37-1.096-2.465-2.445-2.465h-2.562v4.89H155.835z M156.696,200.996c1.624,0,2.936-1.311,2.954-2.953
			c-0.021-1.623-1.33-2.953-2.954-2.953h-3.423v5.906H156.696z"/>
		<path fill="#FFFFFF" d="M172.407,198.414h-6.24l-1.213,3.229c-0.078,0.194-0.254,0.312-0.449,0.312
			c-0.039,0-0.117-0.02-0.176-0.02c-0.234-0.098-0.371-0.393-0.273-0.626l4.753-12.695c0.079-0.177,0.274-0.294,0.47-0.294
			c0.217,0,0.411,0.117,0.471,0.294l4.754,12.695c0.098,0.233-0.021,0.528-0.256,0.626c-0.078,0-0.117,0.02-0.176,0.02
			c-0.176,0-0.371-0.117-0.449-0.312L172.407,198.414z M166.52,197.457h5.536l-2.76-7.355L166.52,197.457z"/>
		<path fill="#FFFFFF" d="M180.021,190.276v11.209c0,0.255-0.215,0.47-0.471,0.47c-0.254,0-0.469-0.215-0.469-0.47v-12.56
			c-0.06-0.194,0-0.391,0.176-0.527c0.216-0.137,0.527-0.098,0.666,0.118l8.293,11.502v-11.15c0-0.254,0.216-0.47,0.471-0.47
			c0.273,0,0.488,0.216,0.488,0.47v12.617c0,0.255-0.215,0.47-0.488,0.47c-0.157,0-0.273-0.059-0.372-0.176
			c-0.021-0.02-0.06-0.039-0.078-0.078L180.021,190.276z"/>
		<path fill="#FFFFFF" d="M194.597,188.791c0-0.273,0.216-0.49,0.47-0.49c0.272,0,0.489,0.217,0.489,0.49v7.922l8.273-8.274
			c0.195-0.177,0.51-0.177,0.666,0c0.194,0.177,0.194,0.489,0,0.687l-5.242,5.241l5.358,6.808c0.156,0.216,0.117,0.49-0.077,0.686
			c-0.099,0.078-0.195,0.098-0.312,0.098c-0.139,0-0.256-0.039-0.354-0.176l-5.301-6.729l-3.013,3.013v3.423
			c0,0.255-0.216,0.471-0.489,0.471c-0.254,0-0.47-0.216-0.47-0.471L194.597,188.791L194.597,188.791z"/>
	</g>
</g>
<g id="Layer_2">
	<g>
		<linearGradient id="SVGID_1_" gradientUnits="userSpaceOnUse" x1="122.25" y1="142.75" x2="122.25" y2="47.7505">
			<stop  offset="0" style="stop-color:#DA5E4A"/>
			<stop  offset="1" style="stop-color:#DA5E4A;stop-opacity:0"/>
		</linearGradient>
		<rect x="112.75" y="47.75" fill="url(#SVGID_1_)" width="19" height="95"/>
		<linearGradient id="SVGID_2_" gradientUnits="userSpaceOnUse" x1="140.75" y1="118.75" x2="140.75" y2="23.7505">
			<stop  offset="0" style="stop-color:#D05084"/>
			<stop  offset="1" style="stop-color:#D05084;stop-opacity:0"/>
		</linearGradient>
		<rect x="131.75" y="23.75" fill="url(#SVGID_2_)" width="18" height="95"/>
		<linearGradient id="SVGID_3_" gradientUnits="userSpaceOnUse" x1="159.25" y1="95.75" x2="159.25" y2="0.75">
			<stop  offset="0" style="stop-color:#664A63"/>
			<stop  offset="1" style="stop-color:#664A63;stop-opacity:0"/>
		</linearGradient>
		<rect x="149.75" y="0.75" fill="url(#SVGID_3_)" width="19" height="95"/>
		<linearGradient id="SVGID_4_" gradientUnits="userSpaceOnUse" x1="84.25" y1="142.75" x2="84.25" y2="47.7505">
			<stop  offset="0" style="stop-color:#8CAE34"/>
			<stop  offset="1" style="stop-color:#8CAE34;stop-opacity:0"/>
		</linearGradient>
		<rect x="74.75" y="47.75" fill="url(#SVGID_4_)" width="19" height="95"/>
		<linearGradient id="SVGID_5_" gradientUnits="userSpaceOnUse" x1="65.25" y1="118.75" x2="65.25" y2="23.7505">
			<stop  offset="0" style="stop-color:#4BAA4E"/>
			<stop  offset="1" style="stop-color:#4BAA4E;stop-opacity:0"/>
		</linearGradient>
		<rect x="55.75" y="23.75" fill="url(#SVGID_5_)" width="19" height="95"/>
		<linearGradient id="SVGID_6_" gradientUnits="userSpaceOnUse" x1="46.25" y1="95.75" x2="46.25" y2="0.75">
			<stop  offset="0" style="stop-color:#007199"/>
			<stop  offset="1" style="stop-color:#007199;stop-opacity:0"/>
		</linearGradient>
		<rect x="36.75" y="0.75" fill="url(#SVGID_6_)" width="19" height="95"/>
		<linearGradient id="SVGID_7_" gradientUnits="userSpaceOnUse" x1="103.2505" y1="166.75" x2="103.2505" y2="70.7505">
			<stop  offset="0" style="stop-color:#F2BB4C"/>
			<stop  offset="1" style="stop-color:#F2BB4C;stop-opacity:0"/>
		</linearGradient>
		<rect x="93.75" y="70.75" fill="url(#SVGID_7_)" width="19" height="96"/>
	</g>
</g>
</svg>
