<?xml version="1.0" encoding="utf-8"?>
<!-- Generator: Adobe Illustrator 15.1.0, SVG Export Plug-In . SVG Version: 6.00 Build 0)  -->
<!DOCTYPE svg PUBLIC "-//W3C//DTD SVG 1.1//EN" "http://www.w3.org/Graphics/SVG/1.1/DTD/svg11.dtd">
<svg version="1.1" xmlns="http://www.w3.org/2000/svg" xmlns:xlink="http://www.w3.org/1999/xlink" x="0px" y="0px" width="300px"
	 height="300px" viewBox="0 0 300 300" enable-background="new 0 0 300 300" xml:space="preserve">
<g id="Layer_1" display="none">
	<circle display="inline" fill="#F2F2F2" cx="149.5" cy="150" r="125"/>
</g>
<g id="Layer_6" display="none">
	<g display="inline">
		<defs>
			<polygon id="SVGID_1_" points="364.337,208.886 185.322,307.343 64,195.178 234,81 			"/>
		</defs>
		<clipPath id="SVGID_2_">
			<use xlink:href="#SVGID_1_"  overflow="visible"/>
		</clipPath>
		<circle clip-path="url(#SVGID_2_)" fill="#E6E6E6" cx="149.5" cy="150" r="125"/>
	</g>
</g>
<g id="Layer_2" display="none">
	<g display="inline">
		<path fill="#007199" d="M230.871,81L161,133.127V133h-23v0.127L67.129,81H64v114.178l74.049,52.127
			c0,2.625,4.995,3.695,11.473,3.695s11.473-1.07,11.473-3.695L234,195.178V81H230.871z"/>
		<path fill="#1290B2" d="M79.473,78.167L71,85.855V193c0,0,37.333,19.639,79,55.334v-9L79.473,78.167z"/>
		<path fill="#9BDBEA" d="M150,244.305c-21.334-35.638-71-54.638-71-54.638V78c0,0,70.5,35.999,71,52.127
			C150.812,156.323,150,244.305,150,244.305z"/>
		<path fill="#1290B2" d="M220.527,78.167L229,85.855V193c0,0-37,19.639-79,55.334v-9L220.527,78.167z"/>
		<path fill="#72C4D6" d="M150,244.305c21.334-35.638,71-54.638,71-54.638V78c0,0-70.41,35.999-70.91,52.127
			C149.277,156.323,150,244.305,150,244.305z"/>
	</g>
</g>
<g id="Layer_5" display="none">
	<path display="inline" fill="none" stroke="#823B34" stroke-width="5" stroke-miterlimit="10" d="M151.757,233.793
		c-1.608,3.484,0.857,8.332,3.75,10.384c9.363,6.64,15.654-14.758,17.537-20.91c12.816-41.873,11.626-88.463,29.338-128.79
		c3.2-7.284,22.355-41.992,26.118,0.702"/>
	<path display="inline" fill="#DA5E4A" d="M147.786,213.243l-12.075,6.773l10.353,17.603c1.574,0.344,3.433-0.424,5.409-1.532
		s3.612-2.328,4.24-3.907L147.786,213.243z"/>
	<path display="inline" fill="#E88C82" d="M131.759,180.153c-1.858-0.128-4.248,0.824-6.772,2.24
		c-2.523,1.415-4.635,2.93-5.592,4.634l6.978,18.54l10.3,16.544c1.858,0.128,4.199-0.923,6.721-2.338
		c2.525-1.416,4.653-2.899,5.609-4.604l-7.202-18.256L131.759,180.153z"/>
	<path display="inline" fill="#DA5E4A" d="M135.844,180.285l-19.167,10.752l6.325,7.415c1.968-0.531,4.801-1.992,7.936-3.75
		c3.136-1.759,5.864-3.431,7.391-4.861L135.844,180.285z"/>
	<path display="inline" fill="#DA5E4A" d="M111.366,123.854l-24.747,13.882l30.347,54.618c3.713,1.692,7.564-0.801,11.613-3.072
		c4.048-2.271,7.383-3.809,8.184-8.032L111.366,123.854z"/>
	<polygon display="inline" fill="#E88C82" points="114.498,155.653 110.018,158.166 104.133,146.215 108.612,143.702 	"/>
	<path display="inline" fill="#823B34" d="M79.987,79.429l-9.579,5.374c-9.485,5.32-12.86,19.049-7.953,29.013l8.015,16.276
		c3.561,7.232,10.809,11.104,18.072,10.703c2.469-3.19,6.668-5.89,11.371-8.528c4.66-2.614,8.991-4.705,12.829-5.095
		c4.381-6.151,5.318-14.585,1.772-21.787L106.5,89.11C101.592,79.145,89.471,74.109,79.987,79.429z"/>
</g>
<g id="Layer_7" display="none">
	<g display="inline">
		<path fill="#68D868" d="M89.03,72.77c0,0,1.98-11.023,5.508-0.044c0,0,1.967-4.528,1.628-6.166
			c-0.339-1.637,7.098,1.1,2.314,13.362c0,0,1.44-1.842,0.986,3.411c-0.453,5.254,1.884-0.654,1.67,6.688
			c0,0-3.946,19.574-3.883,24.064c0,0,6.334,15.69,7.472,21.646c0,0,3.13,12.786,6.235,16.144c0,0,44.837,35.362,35.539,52.966
			l-1,29.111l-25.692,0.166L120,211.94c0,0,2.287-6.017-0.5-9.23c0,0-34.145-42.328-35.001-43.202c0,0-5.547-42.097-5.523-48.053
			S88.272,80.78,89.03,72.77z"/>
	</g>
	<path display="inline" fill="#4BAA4E" d="M94.538,72.726c0,0,1.146,4.457-0.038,11.94c-1.317,8.328-0.167,6.667-5.167,25
		l2.917,16.667l11.924,35.853l-4.749-42.541L98,105.667l3.137-15.646c0,0,1.029-4.688-1.637-4.521c0,0,1.127-7.653-1.02-5.577
		c0,0,5.353-11.995-2.147-13.792L94.538,72.726z"/>
	<path display="inline" fill="#4BAA4E" d="M133.382,184.03c0.925,3.902-16.498-22.22-16.498-22.22S129.483,167.577,133.382,184.03z"
		/>
	<path display="inline" fill="#68D868" d="M94.064,163.666c5.241-2.329,6.848-14.426,6.848-14.426s-5.906-36.339,1.578-30.691
		c7.665,5.785,0.204,12.253,15.531,33.214c8.575,11.728,7.979,44.57,7.979,44.57S88.825,165.994,94.064,163.666z"/>
	<g display="inline">
		<path fill="#68D868" d="M210.717,72.77c0,0-1.98-11.023-5.508-0.044c0,0-1.968-4.528-1.629-6.166
			c0.34-1.637-7.098,1.1-2.314,13.362c0,0-1.439-1.842-0.986,3.411c0.453,5.254-1.884-0.654-1.67,6.688
			c0,0,3.945,19.574,3.883,24.064c0,0-6.334,15.69-7.473,21.646c0,0-3.13,12.786-6.234,16.144c0,0-44.837,35.362-35.539,52.966
			l1,29.111l25.691,0.166l-0.191-22.177c0,0-2.287-6.017,0.5-9.23c0,0,34.145-42.328,35.001-43.202c0,0,5.547-42.097,5.522-48.053
			C220.746,105.499,211.474,80.78,210.717,72.77z"/>
	</g>
	<path display="inline" fill="#4BAA4E" d="M205.209,72.726c0,0-1.146,4.457,0.037,11.94c1.317,8.328,0.167,6.667,5.167,25
		l-2.917,16.667l-11.924,35.853l4.748-42.541l1.426-13.979l-3.137-15.646c0,0-1.029-4.688,1.637-4.521c0,0-1.127-7.653,1.02-5.577
		c0,0-5.354-11.995,2.146-13.792L205.209,72.726z"/>
	<path display="inline" fill="#4BAA4E" d="M166.363,184.03c-0.924,3.902,16.498-22.22,16.498-22.22S170.263,167.577,166.363,184.03z
		"/>
	<path display="inline" fill="#68D868" d="M205.682,163.666c-5.24-2.329-6.848-14.426-6.848-14.426s5.906-36.339-1.578-30.691
		c-7.664,5.785-0.203,12.253-15.53,33.214c-8.575,11.728-7.979,44.57-7.979,44.57S210.922,165.994,205.682,163.666z"/>
</g>
<g id="Layer_8">
	<circle fill="#F2BB4C" stroke="#F2BB4C" stroke-width="18" stroke-miterlimit="10" cx="150.333" cy="228.333" r="12"/>
	<circle fill="#F2BB4C" stroke="#F2BB4C" stroke-width="18" stroke-miterlimit="10" cx="84.333" cy="78.333" r="12"/>
	<line fill="none" stroke="#F2BB4C" stroke-width="10" stroke-miterlimit="10" x1="84.333" y1="78.333" x2="150.333" y2="228.333"/>
	<circle fill="#F2BB4C" stroke="#F2BB4C" stroke-width="18" stroke-miterlimit="10" cx="217.333" cy="78.333" r="12"/>
	
		<line fill="none" stroke="#F2BB4C" stroke-width="10" stroke-miterlimit="10" x1="217.333" y1="78.333" x2="151.333" y2="228.333"/>
</g>
</svg>
