<?xml version="1.0" encoding="utf-8"?>
<!-- Generator: Adobe Illustrator 16.0.0, SVG Export Plug-In . SVG Version: 6.00 Build 0)  -->
<!DOCTYPE svg PUBLIC "-//W3C//DTD SVG 1.1//EN" "http://www.w3.org/Graphics/SVG/1.1/DTD/svg11.dtd">
<svg version="1.1" id="Layer_1" xmlns="http://www.w3.org/2000/svg" xmlns:xlink="http://www.w3.org/1999/xlink" x="0px" y="0px"
	 width="100px" height="100px" viewBox="0 0 100 100" enable-background="new 0 0 100 100" xml:space="preserve">
<polygon points="24.563,3.106 31.02,3.106 31.02,4.244 22.442,4.244 "/>
<polygon points="19.456,6.058 31.18,6.058 31.18,7.195 17.946,7.195 "/>
<polygon points="14.445,10.146 15.666,9.04 31.34,9.04 31.34,10.146 "/>
<polygon points="14.734,11.99 15.184,13.097 31.726,13.097 31.726,11.99 "/>
<polygon points="15.677,14.88 31.951,14.88 32.058,16.068 16.083,16.068 "/>
<polygon points="16.597,17.831 32.24,17.831 32.4,18.999 17.015,18.999 "/>
<polygon points="17.561,20.751 32.689,20.751 32.85,21.919 17.914,21.919 "/>
<polygon points="33.332,24.809 33.106,23.733 18.524,23.733 18.91,24.963 33.332,24.963 "/>
<polygon points="19.52,26.715 33.717,26.715 33.877,27.821 19.938,27.821 "/>
<polygon points="34.456,30.772 34.231,29.604 20.548,29.604 20.998,30.772 "/>
<polygon points="35.195,33.724 34.906,32.555 21.673,32.555 22.058,33.724 "/>
<polygon points="22.732,35.538 35.612,35.538 35.901,36.674 23.182,36.674 "/>
<polygon points="23.824,38.458 36.383,38.458 36.704,39.687 24.338,39.687 "/>
<polygon points="25.044,41.439 37.218,41.439 37.54,42.546 25.494,42.546 "/>
<polygon points="26.201,44.391 38.118,44.391 38.503,45.589 26.682,45.589 "/>
<polygon points="27.454,47.311 39.082,47.311 39.467,48.51 28.032,48.51 "/>
<polygon points="28.738,50.292 40.108,50.292 40.591,51.46 29.349,51.46 "/>
<polygon points="30.152,53.182 41.298,53.182 41.78,54.38 30.73,54.38 "/>
<polygon points="31.565,56.163 42.55,56.163 43.033,57.361 32.111,57.361 "/>
<polygon points="33.043,59.146 43.834,59.146 44.381,60.312 33.653,60.312 "/>
<polygon points="34.665,62.128 45.312,62.128 45.923,63.266 35.195,63.266 "/>
<polygon points="36.222,65.048 46.887,65.048 47.497,66.188 36.961,66.188 36.801,66.188 "/>
<polygon points="37.957,67.999 48.621,67.999 49.231,69.167 38.711,69.167 "/>
<polygon points="39.788,70.919 60.473,70.919 59.734,72.087 40.527,72.087 "/>
<polygon points="41.715,73.9 58.546,73.9 57.807,75.038 42.55,75.038 "/>
<polygon points="43.803,76.79 56.491,76.79 55.688,78.02 44.83,78.02 "/>
<polygon points="46.244,79.741 54.307,79.741 53.375,80.973 47.24,80.973 "/>
<polygon points="48.942,82.725 51.705,82.725 50.323,84.261 "/>
<polygon points="75.537,3.076 69.081,3.076 69.081,4.213 77.657,4.213 "/>
<polygon points="80.645,6.027 68.921,6.027 68.921,7.164 82.152,7.164 "/>
<polygon points="85.654,10.116 84.436,9.009 68.759,9.009 68.759,10.116 "/>
<polygon points="85.366,11.959 84.916,13.066 68.375,13.066 68.375,11.959 "/>
<polygon points="84.424,14.849 68.15,14.849 68.044,16.039 84.02,16.039 "/>
<polygon points="83.503,17.801 67.859,17.801 67.699,18.969 83.086,18.969 "/>
<polygon points="82.54,20.721 67.411,20.721 67.251,21.888 82.186,21.888 "/>
<polygon points="66.77,24.778 66.993,23.702 81.575,23.702 81.191,24.932 66.77,24.932 "/>
<polygon points="80.58,26.685 66.382,26.685 66.223,27.791 80.163,27.791 "/>
<polygon points="65.645,30.742 65.869,29.573 79.552,29.573 79.102,30.742 "/>
<polygon points="64.906,33.692 65.193,32.524 78.428,32.524 78.042,33.692 "/>
<polygon points="77.369,35.507 64.488,35.507 64.199,36.644 76.919,36.644 "/>
<polygon points="76.275,38.427 63.718,38.427 63.396,39.656 75.764,39.656 "/>
<polygon points="75.055,41.409 62.883,41.409 62.561,42.516 74.605,42.516 "/>
<polygon points="73.898,44.359 61.982,44.359 61.598,45.559 73.418,45.559 "/>
<polygon points="72.646,47.28 61.02,47.28 60.634,48.479 72.068,48.479 "/>
<polygon points="71.361,50.261 59.991,50.261 59.51,51.43 70.753,51.43 "/>
<polygon points="69.949,53.15 58.803,53.15 58.32,54.352 69.371,54.352 "/>
<polygon points="68.536,56.134 57.551,56.134 57.068,57.331 67.988,57.331 "/>
<polygon points="67.059,59.114 56.266,59.114 55.721,60.282 66.447,60.282 "/>
<polygon points="65.436,62.098 54.787,62.098 54.178,63.232 64.906,63.232 "/>
<polygon points="63.879,65.018 53.214,65.018 52.604,66.152 63.139,66.152 63.3,66.152 "/>
<polygon points="62.145,67.968 51.479,67.968 50.869,69.139 61.389,69.139 "/>
<path d="M27.117,5.35h3.501V4.751C30.618,4.751,28.272,4.92,27.117,5.35"/>
<polygon points="20.885,8.302 30.73,8.302 30.73,7.687 21.816,7.687 "/>
<polygon points="17.539,10.679 30.73,10.679 30.837,10.679 30.837,11.252 16.875,11.252 "/>
<polygon points="30.966,13.589 31.008,14.203 13.642,14.203 14.221,13.589 "/>
<polygon points="13.813,16.561 31.18,16.561 31.26,17.17 22.106,17.17 14.006,17.17 "/>
<polygon points="14.669,19.512 31.501,19.512 31.582,20.106 18.524,20.106 14.82,20.106 "/>
<polygon points="15.505,22.441 31.822,22.441 31.902,23.057 19.359,23.057 15.677,23.057 "/>
<polygon points="16.319,25.413 32.208,25.413 32.272,26.019 24.253,26.019 16.597,26.019 "/>
<polygon points="17.24,28.324 32.615,28.324 32.722,28.959 17.432,28.959 "/>
<polygon points="18.16,31.295 33.064,31.295 33.192,31.89 18.353,31.89 "/>
<polygon points="19.082,34.226 33.599,34.226 33.707,34.881 19.316,34.881 "/>
<polygon points="34.134,37.218 34.284,37.812 20.302,37.812 20.087,37.218 "/>
<polygon points="34.756,40.148 34.884,40.763 21.266,40.763 21.073,40.148 "/>
<polygon points="35.57,43.714 35.419,43.1 22.101,43.1 22.25,43.714 "/>
<polygon points="36.126,46.051 36.298,46.665 23.364,46.665 23.107,46.051 "/>
<polygon points="36.897,48.981 37.069,49.595 24.457,49.595 24.177,48.981 "/>
<polygon points="37.732,51.973 37.925,52.587 25.569,52.587 25.312,51.973 "/>
<polygon points="38.588,54.902 38.824,55.499 26.704,55.499 26.512,54.902 "/>
<polygon points="39.574,57.854 39.788,58.43 27.946,58.43 27.689,57.854 "/>
<polygon points="40.58,60.827 40.816,61.439 29.167,61.439 28.91,60.827 "/>
<polygon points="30.195,63.757 41.758,63.757 41.95,64.393 30.452,64.393 "/>
<polygon points="31.48,66.708 42.872,66.708 43.106,67.305 31.779,67.305 "/>
<polygon points="32.872,69.68 44.114,69.68 44.371,70.273 33.192,70.273 "/>
<polygon points="34.306,72.63 45.463,72.63 45.741,73.245 34.606,73.245 "/>
<polygon points="35.805,75.581 46.833,75.581 47.175,76.155 36.147,76.155 "/>
<polygon points="37.411,78.532 48.375,78.532 48.739,79.128 37.689,79.128 "/>
<polygon points="39.049,81.464 61.213,81.464 60.891,82.048 39.467,82.048 "/>
<polygon points="40.848,84.443 59.445,84.443 59.124,85.061 41.201,85.061 "/>
<polygon points="42.71,87.364 57.646,87.364 57.262,87.979 43.074,87.979 "/>
<polygon points="44.734,90.314 55.592,90.314 55.174,90.962 45.28,90.962 "/>
<polygon points="47.015,93.298 53.375,93.298 52.988,93.882 47.593,93.882 "/>
<polygon points="49.648,96.157 50.9,96.157 50.322,96.925 "/>
<path d="M72.883,5.374h-3.501v-0.6C69.382,4.774,71.727,4.944,72.883,5.374"/>
<polygon points="79.113,8.325 69.27,8.325 69.27,7.71 78.182,7.71 "/>
<polygon points="82.46,10.702 69.27,10.702 69.161,10.702 69.161,11.275 83.123,11.275 "/>
<polygon points="69.033,13.612 68.988,14.227 86.357,14.227 85.777,13.612 "/>
<polygon points="86.186,16.583 68.818,16.583 68.738,17.193 77.893,17.193 85.992,17.193 "/>
<polygon points="85.329,19.534 68.499,19.534 68.418,20.129 81.475,20.129 85.178,20.129 "/>
<polygon points="84.494,22.465 68.175,22.465 68.096,23.08 80.641,23.08 84.32,23.08 "/>
<polygon points="83.68,25.437 67.791,25.437 67.727,26.042 75.746,26.042 83.4,26.042 "/>
<polygon points="82.76,28.346 67.384,28.346 67.277,28.982 82.566,28.982 "/>
<polygon points="81.839,31.318 66.936,31.318 66.807,31.913 81.646,31.913 "/>
<polygon points="80.917,34.249 66.398,34.249 66.291,34.904 80.682,34.904 "/>
<polygon points="65.863,37.241 65.716,37.835 79.697,37.835 79.911,37.241 "/>
<polygon points="65.242,40.172 65.113,40.786 78.734,40.786 78.927,40.172 "/>
<polygon points="64.43,43.737 64.579,43.122 77.898,43.122 77.747,43.737 "/>
<polygon points="63.872,46.074 63.701,46.688 76.634,46.688 76.893,46.074 "/>
<polygon points="63.102,49.003 62.93,49.619 75.543,49.619 75.82,49.003 "/>
<polygon points="62.268,51.997 62.073,52.609 74.43,52.609 74.688,51.997 "/>
<polygon points="61.409,54.927 61.175,55.521 73.295,55.521 73.486,54.927 "/>
<polygon points="60.425,57.878 60.211,58.452 72.053,58.452 72.311,57.878 "/>
<polygon points="59.419,60.85 59.184,61.464 70.832,61.464 71.089,60.85 "/>
<polygon points="69.805,63.777 58.241,63.777 58.049,64.415 69.546,64.415 "/>
<polygon points="68.52,66.73 57.128,66.73 56.893,67.325 68.219,67.325 "/>
<polygon points="67.128,69.702 55.885,69.702 55.628,70.296 66.807,70.296 "/>
<polygon points="65.693,72.652 54.536,72.652 54.258,73.27 65.393,73.27 "/>
<polygon points="64.193,75.604 53.166,75.604 52.823,76.177 63.852,76.177 "/>
<polygon points="62.588,78.559 51.625,78.559 51.262,79.148 62.309,79.148 "/>
</svg>
