<?xml version="1.0" encoding="utf-8"?>
<!-- Generator: Adobe Illustrator 16.0.0, SVG Export Plug-In . SVG Version: 6.00 Build 0)  -->
<!DOCTYPE svg PUBLIC "-//W3C//DTD SVG 1.1//EN" "http://www.w3.org/Graphics/SVG/1.1/DTD/svg11.dtd">
<svg version="1.1" id="Layer_1" xmlns="http://www.w3.org/2000/svg" xmlns:xlink="http://www.w3.org/1999/xlink" x="0px" y="0px"
	 width="450px" height="430px" viewBox="0 0 450 430" enable-background="new 0 0 450 430" xml:space="preserve">
<polygon fill="#FFFFFF" points="130.059,2.19 154.331,2.19 154.331,6.466 122.088,6.466 "/>
<polygon fill="#FFFFFF" points="110.858,13.285 154.933,13.285 154.933,17.561 105.183,17.561 "/>
<polygon fill="#FFFFFF" points="92.021,28.655 96.609,24.495 155.538,24.495 155.538,28.655 "/>
<polygon fill="#FFFFFF" points="93.108,35.588 94.798,39.75 156.987,39.75 156.987,35.588 "/>
<polygon fill="#FFFFFF" points="96.65,46.452 157.833,46.452 158.235,50.921 98.179,50.921 "/>
<polygon fill="#FFFFFF" points="100.112,57.547 158.919,57.547 159.524,61.938 101.681,61.938 "/>
<polygon fill="#FFFFFF" points="103.734,68.525 160.609,68.525 161.214,72.917 105.063,72.917 "/>
<polygon fill="#FFFFFF" points="163.024,83.78 162.179,79.734 107.356,79.734 108.805,84.358 163.024,84.358 "/>
<polygon fill="#FFFFFF" points="111.101,90.945 164.476,90.945 165.076,95.105 112.67,95.105 "/>
<polygon fill="#FFFFFF" points="167.25,106.2 166.406,101.808 114.964,101.808 116.654,106.2 "/>
<polygon fill="#FFFFFF" points="170.028,117.294 168.943,112.903 119.192,112.903 120.641,117.294 "/>
<polygon fill="#FFFFFF" points="123.175,124.114 171.599,124.114 172.685,128.389 124.865,128.389 "/>
<polygon fill="#FFFFFF" points="127.282,135.092 174.496,135.092 175.704,139.713 129.215,139.713 "/>
<polygon fill="#FFFFFF" points="131.869,146.302 177.636,146.302 178.844,150.462 133.561,150.462 "/>
<polygon fill="#FFFFFF" points="136.217,157.396 181.018,157.396 182.466,161.902 138.027,161.902 "/>
<polygon fill="#FFFFFF" points="140.927,168.375 184.641,168.375 186.089,172.882 143.1,172.882 "/>
<polygon fill="#FFFFFF" points="145.756,179.584 188.502,179.584 190.316,183.976 148.051,183.976 "/>
<polygon fill="#FFFFFF" points="151.071,190.447 192.971,190.447 194.784,194.955 153.244,194.955 "/>
<polygon fill="#FFFFFF" points="156.383,201.658 197.681,201.658 199.494,206.165 158.436,206.165 "/>
<polygon fill="#FFFFFF" points="161.938,212.867 202.51,212.867 204.564,217.259 164.232,217.259 "/>
<polygon fill="#FFFFFF" points="168.036,224.078 208.065,224.078 210.36,228.354 170.028,228.354 "/>
<polygon fill="#FFFFFF" points="173.892,235.057 213.985,235.057 216.279,239.334 176.671,239.334 176.066,239.334 "/>
<polygon fill="#FFFFFF" points="180.413,246.151 220.503,246.151 222.798,250.541 183.25,250.541 "/>
<polygon fill="#FFFFFF" points="187.296,257.13 265.063,257.13 262.287,261.521 190.075,261.521 "/>
<polygon fill="#FFFFFF" points="194.541,268.34 257.817,268.34 255.038,272.616 197.681,272.616 "/>
<polygon fill="#FFFFFF" points="202.391,279.202 250.09,279.202 247.071,283.826 206.253,283.826 "/>
<polygon fill="#FFFFFF" points="211.566,290.297 241.88,290.297 238.375,294.919 215.311,294.919 "/>
<polygon fill="#FFFFFF" points="221.712,301.506 232.098,301.506 226.902,307.284 "/>
<polygon fill="#FFFFFF" points="321.695,2.074 297.424,2.074 297.424,6.351 329.667,6.351 "/>
<polygon fill="#FFFFFF" points="340.895,13.169 296.819,13.169 296.819,17.445 346.573,17.445 "/>
<polygon fill="#FFFFFF" points="359.733,28.54 355.146,24.378 296.217,24.378 296.217,28.54 "/>
<polygon fill="#FFFFFF" points="358.646,35.474 356.956,39.633 294.767,39.633 294.767,35.474 "/>
<polygon fill="#FFFFFF" points="355.106,46.337 293.923,46.337 293.519,50.806 353.577,50.806 "/>
<polygon fill="#FFFFFF" points="351.644,57.432 292.835,57.432 292.23,61.823 350.073,61.823 "/>
<polygon fill="#FFFFFF" points="348.021,68.41 291.146,68.41 290.543,72.801 346.689,72.801 "/>
<polygon fill="#FFFFFF" points="288.729,83.666 289.576,79.62 344.398,79.62 342.949,84.242 288.729,84.242 "/>
<polygon fill="#FFFFFF" points="340.654,90.831 287.279,90.831 286.678,94.991 339.086,94.991 "/>
<polygon fill="#FFFFFF" points="284.504,106.084 285.349,101.693 336.791,101.693 335.1,106.084 "/>
<polygon fill="#FFFFFF" points="281.727,117.178 282.812,112.787 332.564,112.787 331.113,117.178 "/>
<polygon fill="#FFFFFF" points="328.578,123.998 280.157,123.998 279.07,128.273 326.89,128.273 "/>
<polygon fill="#FFFFFF" points="324.473,134.976 277.261,134.976 276.049,139.598 322.539,139.598 "/>
<polygon fill="#FFFFFF" points="319.885,146.186 274.119,146.186 272.912,150.347 318.195,150.347 "/>
<polygon fill="#FFFFFF" points="315.536,157.28 270.738,157.28 269.288,161.787 313.728,161.787 "/>
<polygon fill="#FFFFFF" points="310.829,168.259 267.115,168.259 265.664,172.766 308.654,172.766 "/>
<polygon fill="#FFFFFF" points="305.999,179.469 263.251,179.469 261.439,183.86 303.704,183.86 "/>
<polygon fill="#FFFFFF" points="300.685,190.332 258.784,190.332 256.971,194.838 298.511,194.838 "/>
<polygon fill="#FFFFFF" points="295.373,201.543 254.075,201.543 252.26,206.049 293.319,206.049 "/>
<polygon fill="#FFFFFF" points="289.816,212.752 249.245,212.752 247.191,217.145 287.521,217.145 "/>
<polygon fill="#FFFFFF" points="283.718,223.962 243.688,223.962 241.395,228.237 281.727,228.237 "/>
<polygon fill="#FFFFFF" points="277.863,234.94 237.772,234.94 235.478,239.216 275.084,239.216 275.689,239.216 "/>
<polygon fill="#FFFFFF" points="271.342,246.035 231.25,246.035 228.956,250.429 268.505,250.429 "/>
<path fill="#FFFFFF" d="M139.66,10.626h13.162V8.373C152.822,8.373,144.006,9.01,139.66,10.626"/>
<polygon fill="#FFFFFF" points="116.232,21.721 153.243,21.721 153.243,19.41 119.735,19.41 "/>
<polygon fill="#FFFFFF" points="103.653,30.658 153.244,30.658 153.646,30.658 153.646,32.814 101.157,32.814 "/>
<polygon fill="#FFFFFF" points="154.13,41.598 154.291,43.909 89.002,43.909 91.177,41.598 "/>
<polygon fill="#FFFFFF" points="89.646,52.77 154.935,52.77 155.236,55.061 120.822,55.061 90.37,55.061 "/>
<polygon fill="#FFFFFF" points="92.866,63.864 156.143,63.864 156.444,66.099 107.356,66.099 93.43,66.099 "/>
<polygon fill="#FFFFFF" points="96.006,74.881 157.349,74.881 157.651,77.192 110.496,77.192 96.652,77.192 "/>
<polygon fill="#FFFFFF" points="99.066,86.052 158.797,86.052 159.04,88.327 128.892,88.327 100.113,88.327 "/>
<polygon fill="#FFFFFF" points="102.527,96.994 160.328,96.994 160.731,99.382 103.251,99.382 "/>
<polygon fill="#FFFFFF" points="105.989,108.165 162.018,108.165 162.502,110.399 106.713,110.399 "/>
<polygon fill="#FFFFFF" points="109.45,119.183 164.03,119.183 164.433,121.647 110.336,121.647 "/>
<polygon fill="#FFFFFF" points="166.043,130.431 166.606,132.665 114.039,132.665 113.233,130.431 "/>
<polygon fill="#FFFFFF" points="168.378,141.448 168.861,143.759 117.661,143.759 116.937,141.448 "/>
<polygon fill="#FFFFFF" points="171.438,154.854 170.874,152.542 120.8,152.542 121.366,154.854 "/>
<polygon fill="#FFFFFF" points="173.53,163.637 174.175,165.947 125.551,165.947 124.585,163.637 "/>
<polygon fill="#FFFFFF" points="176.428,174.654 177.073,176.964 129.658,176.964 128.61,174.654 "/>
<polygon fill="#FFFFFF" points="179.568,185.902 180.292,188.212 133.841,188.212 132.877,185.902 "/>
<polygon fill="#FFFFFF" points="182.788,196.919 183.674,199.155 138.108,199.155 137.384,196.919 "/>
<polygon fill="#FFFFFF" points="186.491,208.014 187.295,210.171 142.778,210.171 141.812,208.014 "/>
<polygon fill="#FFFFFF" points="190.275,219.187 191.161,221.496 147.368,221.496 146.402,219.187 "/>
<polygon fill="#FFFFFF" points="151.232,230.202 194.702,230.202 195.427,232.593 152.197,232.593 "/>
<polygon fill="#FFFFFF" points="156.062,241.297 198.89,241.297 199.774,243.534 157.187,243.534 "/>
<polygon fill="#FFFFFF" points="161.294,252.471 203.559,252.471 204.525,254.704 162.502,254.704 "/>
<polygon fill="#FFFFFF" points="166.688,263.563 208.63,263.563 209.677,265.874 167.815,265.874 "/>
<polygon fill="#FFFFFF" points="172.322,274.659 213.78,274.659 215.069,276.815 173.61,276.815 "/>
<polygon fill="#FFFFFF" points="178.36,285.754 219.578,285.754 220.946,287.986 179.407,287.986 "/>
<polygon fill="#FFFFFF" points="184.519,296.77 267.842,296.77 266.631,298.966 186.088,298.966 "/>
<polygon fill="#FFFFFF" points="191.282,307.98 261.201,307.98 259.989,310.289 192.609,310.289 "/>
<polygon fill="#FFFFFF" points="198.284,318.956 254.435,318.956 252.986,321.268 199.652,321.268 "/>
<polygon fill="#FFFFFF" points="205.892,330.051 246.709,330.051 245.139,332.479 207.946,332.479 "/>
<polygon fill="#FFFFFF" points="214.467,341.262 238.375,341.262 236.926,343.457 216.641,343.457 "/>
<polygon fill="#FFFFFF" points="224.366,352.012 229.075,352.012 226.901,354.9 "/>
<path fill="#FFFFFF" d="M311.714,10.713h-13.163V8.459C298.551,8.459,307.365,9.096,311.714,10.713"/>
<polygon fill="#FFFFFF" points="335.142,21.808 298.129,21.808 298.129,19.497 331.638,19.497 "/>
<polygon fill="#FFFFFF" points="347.72,30.744 298.129,30.744 297.725,30.744 297.725,32.9 350.215,32.9 "/>
<polygon fill="#FFFFFF" points="297.242,41.684 297.082,43.995 362.37,43.995 360.195,41.684 "/>
<polygon fill="#FFFFFF" points="361.724,52.856 296.438,52.856 296.137,55.148 330.552,55.148 361.003,55.148 "/>
<polygon fill="#FFFFFF" points="358.506,63.951 295.231,63.951 294.929,66.186 344.015,66.186 357.943,66.186 "/>
<polygon fill="#FFFFFF" points="355.368,74.968 294.022,74.968 293.721,77.28 340.878,77.28 354.72,77.28 "/>
<polygon fill="#FFFFFF" points="352.307,86.139 292.575,86.139 292.33,88.414 322.481,88.414 351.261,88.414 "/>
<polygon fill="#FFFFFF" points="348.847,97.08 291.043,97.08 290.642,99.47 348.122,99.47 "/>
<polygon fill="#FFFFFF" points="345.384,108.252 289.354,108.252 288.869,110.486 344.658,110.486 "/>
<polygon fill="#FFFFFF" points="341.922,119.269 287.341,119.269 286.939,121.735 341.035,121.735 "/>
<polygon fill="#FFFFFF" points="285.33,130.517 284.767,132.752 337.333,132.752 338.136,130.517 "/>
<polygon fill="#FFFFFF" points="282.992,141.535 282.511,143.845 333.713,143.845 334.438,141.535 "/>
<polygon fill="#FFFFFF" points="279.936,154.94 280.499,152.629 330.574,152.629 330.007,154.94 "/>
<polygon fill="#FFFFFF" points="277.841,163.724 277.197,166.034 325.822,166.034 326.789,163.724 "/>
<polygon fill="#FFFFFF" points="274.945,174.74 274.299,177.051 321.715,177.051 322.763,174.74 "/>
<polygon fill="#FFFFFF" points="271.803,185.99 271.08,188.301 317.529,188.301 318.497,185.99 "/>
<polygon fill="#FFFFFF" points="268.581,197.006 267.7,199.24 313.264,199.24 313.99,197.006 "/>
<polygon fill="#FFFFFF" points="264.882,208.1 264.077,210.258 308.594,210.258 309.562,208.1 "/>
<polygon fill="#FFFFFF" points="261.099,219.271 260.212,221.583 304.006,221.583 304.97,219.271 "/>
<polygon fill="#FFFFFF" points="300.14,230.287 256.671,230.287 255.946,232.68 299.176,232.68 "/>
<polygon fill="#FFFFFF" points="295.311,241.384 252.484,241.384 251.597,243.619 294.185,243.619 "/>
<polygon fill="#FFFFFF" points="290.078,252.558 247.812,252.558 246.848,254.789 288.869,254.789 "/>
<polygon fill="#FFFFFF" points="284.685,263.648 242.741,263.648 241.695,265.961 283.557,265.961 "/>
<polygon fill="#FFFFFF" points="279.049,274.743 237.591,274.743 236.303,276.899 277.761,276.899 "/>
<polygon fill="#FFFFFF" points="273.012,285.84 231.796,285.84 230.427,288.073 271.962,288.073 "/>
<polygon fill="#FFFFFF" points="94.694,380.303 107.382,410.735 120.25,380.303 127.827,380.303 107.234,427.512 87.115,380.303 "/>
<path fill="#FFFFFF" d="M130.5,402.061c0-6.182,2.368-11.492,7.104-15.928c4.714-4.437,10.383-6.655,17-6.655
	c6.537,0,12.143,2.24,16.819,6.713c4.695,4.475,7.042,9.851,7.042,16.124c0,6.315-2.358,11.672-7.072,16.071
	c-4.735,4.417-10.449,6.625-17.146,6.625c-5.927,0-11.243-1.962-15.96-5.887C133.098,414.782,130.5,409.095,130.5,402.061
	 M137.485,402.132c0,4.849,1.704,8.836,5.11,11.961c3.389,3.128,7.301,4.689,11.739,4.689c4.813,0,8.875-1.592,12.185-4.773
	c3.308-3.22,4.963-7.143,4.963-11.767c0-4.675-1.635-8.6-4.903-11.763c-3.251-3.183-7.272-4.773-12.067-4.773
	c-4.775,0-8.806,1.591-12.092,4.773C139.13,393.626,137.485,397.508,137.485,402.132"/>
<path fill="#FFFFFF" d="M222.356,382.649v7.836c-4.001-3.206-8.142-4.805-12.422-4.805c-4.711,0-8.685,1.616-11.917,4.86
	c-3.246,3.226-4.87,7.166-4.87,11.833c0,4.606,1.624,8.495,4.87,11.658c3.251,3.17,7.232,4.75,11.95,4.75
	c2.434,0,4.506-0.375,6.209-1.139c0.948-0.378,1.935-0.89,2.955-1.536c1.022-0.642,2.097-1.42,3.225-2.329v8.005
	c-3.96,2.152-8.122,3.228-12.481,3.228c-6.558,0-12.152-2.188-16.788-6.569c-4.617-4.419-6.926-9.746-6.926-15.984
	c0-5.591,1.934-10.581,5.796-14.957c4.756-5.368,10.906-8.049,18.454-8.049C214.532,379.451,218.515,380.517,222.356,382.649"/>
<path fill="#FFFFFF" d="M260.424,413.55h-19.642l-5.113,10.665h-7.458l22.703-46.672l21.9,46.672h-7.578L260.424,413.55z
	 M257.603,407.32l-6.806-14.931l-7.135,14.931H257.603z"/>
<polygon fill="#FFFFFF" points="286.755,380.303 286.755,417.988 300.247,417.988 300.247,424.215 279.831,424.215 279.831,380.303 
	"/>
<path fill="#FFFFFF" d="M305.806,384.995c0-1.118,0.425-2.086,1.275-2.9c0.853-0.815,1.872-1.22,3.062-1.22
	c1.205,0,2.236,0.404,3.088,1.22c0.853,0.797,1.28,1.774,1.28,2.932c0,1.154-0.428,2.141-1.28,2.954
	c-0.829,0.815-1.851,1.227-3.062,1.227c-1.206,0-2.234-0.411-3.087-1.227C306.23,387.167,305.806,386.171,305.806,384.995
	 M313.5,424.215h-6.684v-27.701h6.684V424.215z"/>
<path fill="#FFFFFF" d="M324.526,424.215v-43.912h9.629c4.615,0,8.26,0.437,10.933,1.31c2.871,0.853,5.48,2.3,7.817,4.35
	c4.734,4.132,7.101,9.566,7.101,16.296c0,6.751-2.463,12.211-7.397,16.382c-2.477,2.084-5.071,3.537-7.786,4.353
	c-2.537,0.817-6.131,1.223-10.79,1.223H324.526z M331.449,417.988h3.119c3.11,0,5.697-0.313,7.755-0.939
	c2.062-0.664,3.924-1.715,5.59-3.158c3.405-2.976,5.109-6.854,5.109-11.633c0-4.813-1.683-8.722-5.051-11.717
	c-3.029-2.671-7.498-4.012-13.403-4.012h-3.119V417.988z"/>
</svg>
